<svg xmlns="http://www.w3.org/2000/svg" version="1.1" xmlns:xlink="http://www.w3.org/1999/xlink" xmlns:svgjs="http://svgjs.com/svgjs" width="25.1" height="25.1"><svg id="SvgjsSvg1002" xmlns="http://www.w3.org/2000/svg" xmlns:xlink="http://www.w3.org/1999/xlink" viewBox="0 0 25.1 25.1"><defs><style>.cls-1{fill:url(#linear-gradient);}.cls-1,.cls-2{stroke-width:0px;}.cls-2{fill:#fff;}</style><linearGradient id="SvgjsLinearGradient1001" x1="19.8" y1="-5.22" x2=".05" y2="43.21" gradientUnits="userSpaceOnUse"><stop offset="0" stop-color="#0a7bc0"></stop><stop offset=".04" stop-color="#0884c7"></stop><stop offset=".16" stop-color="#039dd9"></stop><stop offset=".27" stop-color="#00ace5"></stop><stop offset=".36" stop-color="#00b2e9"></stop></linearGradient></defs><g id="SvgjsG1000"><rect class="cls-1" width="25.1" height="25.1" rx="6.57" ry="6.57"></rect><path class="cls-2" d="m16.94,19.21l-5.53-3.19v-2.62l5.53,3.19v2.62Zm-2.27-8.26l2.27-1.31v2.62l-2.27,1.31v-2.62Zm-3.25,1.31v-2.62l2.27,1.31v2.62s-2.27-1.31-2.27-1.31Zm-3.25-5.07l2.27-1.31v13.33l-2.27-1.31V7.2Zm6.02,2.91l-2.76-1.6v-2.62l5.04,2.91-2.27,1.31Zm3.74-1.33s0-.08-.02-.11c0,0,0,0,0,0,0-.04-.02-.07-.04-.1,0,0-.01-.02-.02-.03-.02-.02-.03-.05-.05-.07,0,0-.01-.02-.02-.02-.03-.03-.06-.05-.09-.07l-6.51-3.76c-.08-.04-.16-.07-.25-.07-.04,0-.08,0-.13.02-.04.01-.08.03-.12.05l-3.25,1.88c-.15.09-.25.25-.25.42v11.27c0,.18.09.34.25.42l3.25,1.88c.15.09.34.09.49,0,.15-.09.25-.25.25-.42v-2.91l5.77,3.33c.15.09.34.09.49,0,.15-.09.25-.25.25-.42v-3.76c0-.18-.09-.34-.25-.42l-2.52-1.45,2.52-1.45c.15-.09.25-.25.25-.42v-3.76s0,0,0-.01"></path></g></svg><style>@media (prefers-color-scheme: light) { :root { filter: none; } }
</style></svg>