<?xml version="1.0" encoding="UTF-8"?><svg id="a" xmlns="http://www.w3.org/2000/svg" viewBox="0 0 25.1 25.1"><defs><style>.c{fill:#fff;}.d{fill:#2c2e35;}</style></defs><g id="b"><rect class="d" width="25.1" height="25.1" rx="6.57" ry="6.57"/><path class="c" d="M16.94,19.21l-5.53-3.19v-2.62l5.53,3.19v2.62Zm-2.27-8.26l2.27-1.31v2.62l-2.27,1.31v-2.62Zm-3.25,1.31v-2.62l2.27,1.31v2.62l-2.27-1.31Zm-3.25-5.07l2.27-1.31v13.33l-2.27-1.31V7.2h0Zm6.02,2.9l-2.76-1.6v-2.62l5.04,2.91-2.27,1.31h-.01Zm3.74-1.33s0-.08-.02-.11h0s-.02-.07-.04-.1c0,0-.01-.02-.02-.03-.02-.02-.03-.05-.05-.07,0,0-.01-.02-.02-.02-.03-.03-.06-.05-.09-.07l-6.51-3.76c-.08-.04-.16-.07-.25-.07-.04,0-.08,0-.13,.02-.04,.01-.08,.03-.12,.05l-3.25,1.88c-.15,.09-.25,.25-.25,.42v11.27c0,.18,.09,.34,.25,.42l3.25,1.88c.15,.09,.34,.09,.49,0s.25-.25,.25-.42v-2.91l5.77,3.33c.15,.09,.34,.09,.49,0s.25-.25,.25-.42v-3.76c0-.18-.09-.34-.25-.42l-2.52-1.45,2.52-1.45c.15-.09,.25-.25,.25-.42v-3.76h0"/></g></svg>